{"title":"Amazing Racer 2012 DVDRip XViD juggs","uid":8241285,"size":742865885,"categoryP":"video","categoryS":"movies","magnet":"?xt=urn:btih:0d043a8fe7a42352c2de1fa5e0ba2b5cf5ff002f&amp;dn=Amazing+Racer+2012+DVDRip+XViD+juggs&amp;tr=udp%3A%2F%2Ftracker.openbittorrent.com%3A80&amp;tr=udp%3A%2F%2Fopen.demonii.com%3A1337&amp;tr=udp%3A%2F%2Ftracker.coppersurfer.tk%3A6969&amp;tr=udp%3A%2F%2Fexodus.desync.com%3A6969","seeders":1,"leechers":0,"uploader":"juggs99","files":3,"time":1362963062,"description":"Source : DVDR IGUANA\n\nFormat : AVI\nFormat/Info : Audio Video Interleave\nFile size : 700 MiB\nDuration : 1h 31mn\nOverall bit rate : 1 068 Kbps\nWriting library : VirtualDub build 32842/release\n\nVideo\nID : 0\nFormat : MPEG-4 Visual\nFormat profile : Advanced Simple@L5\nFormat settings, BVOP : 4\nFormat settings, QPel : No\nFormat settings, GMC : No warppoints\nFormat settings, Matrix : Default (H.263)\nMuxing mode : Packed bitstream\nCodec ID : XVID\nCodec ID/Hint : XviD\nDuration : 1h 31mn\nBit rate : 930 Kbps\nWidth : 640 pixels\nHeight : 256 pixels\nDisplay aspect ratio : 2.500\nFrame rate : 23.976 fps\nColor space : YUV\nChroma subsampling : 4:2:0\nBit depth : 8 bits\nScan type : Progressive\nCompression mode : Lossy\nBits/(Pixel*Frame) : 0.237\nStream size : 610 MiB (87%)\nWriting library : XviD 64\n\nAudio\nID : 1\nFormat : MPEG Audio\nFormat version : Version 1\nFormat profile : Layer 3\nMode : Joint stereo\nCodec ID : 55\nCodec ID/Hint : MP3\nDuration : 1h 31mn\nBit rate mode : Constant\nBit rate : 128 Kbps\nChannel(s) : 2 channels\nSampling rate : 44.1 KHz\nCompression mode : Lossy\nStream size : 83.9 MiB (12%)\nAlignment : Split accross interleaves\nInterleave, duration : 42 ms (1.00 video frame)\nInterleave, preload duration : 500 ms\nWriting library : LAME3.98\n\n\nPlot\nAfter the sudden death of her father leaves a teenage girl without a family, she becomes lost in her own anger and sadness. Her family doctor (Daryl Hannah) informs her that her father had a secret, that the mother she never knew (Claire Forlani) was alive and well. When she travels to meet her, she befriends a horse trainer (Louis Gossett Jr) and discovers that in caring for the horse, she is able to overcome her hardships and emotional trauma. Together they begin to win many races and upset the favorites, owned by an egocentric mogul (Eric Roberts). Through the victories and new friendships she forms, she learns to find her way back to happiness.\n\n &lt;a href=&quot;\nhttp://www.shotpix.com/images/03252163630689894339.png&quot; rel=&quot;nofollow&quot; target=&quot;_NEW&quot;&gt;\nhttp://www.shotpix.com/images/03252163630689894339.png&lt;/a&gt; &lt;a href=&quot;\nhttp://www.shotpix.com/images/53154210969654279007.png&quot; rel=&quot;nofollow&quot; target=&quot;_NEW&quot;&gt;\nhttp://www.shotpix.com/images/53154210969654279007.png&lt;/a&gt; &lt;a href=&quot;\nhttp://www.shotpix.com/images/18613964575540546868.png&quot; rel=&quot;nofollow&quot; target=&quot;_NEW&quot;&gt;\nhttp://www.shotpix.com/images/18613964575540546868.png&lt;/a&gt;","torrent":{"xt":"urn:btih:0d043a8fe7a42352c2de1fa5e0ba2b5cf5ff002f","amp;dn":"Amazing+Racer+2012+DVDRip+XViD+juggs","amp;tr":["udp%3A%2F%2Ftracker.openbittorrent.com%3A80","udp%3A%2F%2Fopen.demonii.com%3A1337","udp%3A%2F%2Ftracker.coppersurfer.tk%3A6969","udp%3A%2F%2Fexodus.desync.com%3A6969"],"infoHash":"0d043a8fe7a42352c2de1fa5e0ba2b5cf5ff002f","infoHashBuffer":{"type":"Buffer","data":[13,4,58,143,231,164,35,82,194,222,31,165,224,186,43,92,245,255,0,47]},"announce":[],"urlList":[]}}